<?xml version="1.0" encoding="UTF-8" standalone="no"?> <svg xmlns="http://www.w3.org/2000/svg" xmlns:xlink="http://www.w3.org/1999/xlink" viewBox="0 0 64 64"><defs><style>.cls-1{fill:url(#linear-gradient);}.cls-2{fill:url(#linear-gradient-2);}</style><linearGradient id="linear-gradient" x1="2.01" y1="27.07" x2="61.96" y2="27.07" gradientUnits="userSpaceOnUse"><stop offset="0" stop-color="#17a6d7"/><stop offset="1" stop-color="#9d31fe"/></linearGradient><linearGradient id="linear-gradient-2" x1="2.03" y1="50.54" x2="61.97" y2="50.54" xlink:href="#linear-gradient"/></defs><g id="Layer_72" data-name="Layer 72"><path class="cls-1" d="M2.84,30.69,19.26,42.32a2.3,2.3,0,0,0,1.16.37,2.49,2.49,0,0,0,.81-.17L58.84,26c4.18-1.74,4.17-8.13-.11-9.78a5.61,5.61,0,0,0-4.42,0l-7.1,3.13L23.88,11.56a1.94,1.94,0,0,0-1.44.07l-5.51,2.42a2,2,0,0,0-.1,3.61l15.8,8.11L21.16,30.82,9.5,25.21a2,2,0,0,0-1.67,0l-4.64,2A2,2,0,0,0,2.84,30.69ZM8.6,29.22l11.66,5.6a2,2,0,0,0,1,.18,2.12,2.12,0,0,0,.65-.15l16.16-7.12a2.44,2.44,0,0,0,.65-.45h0a2,2,0,0,0-.54-3.16L22.39,16l.95-.42,23.34,7.79a2.13,2.13,0,0,0,1.49-.1l0,0,7.7-3.39a1.64,1.64,0,0,1,1.27,0,1.34,1.34,0,0,1,0,2.43L20.65,38.4,8,29.46Z"/><path class="cls-2" d="M60,48.54H4a2,2,0,0,0,0,4H60A2,2,0,0,0,60,48.54Z"/></g></svg>